<?xml version="1.0" encoding="UTF-8"?>
<svg id="Layer_1" data-name="Layer 1" xmlns="http://www.w3.org/2000/svg" viewBox="0 0 216 223.75">
  <defs>
    <style>
      .cls-1 {
        fill: #0055b9;
        stroke: #000;
        stroke-miterlimit: 10;
      }
    </style>
  </defs>
  <path class="cls-1" d="m160.21,34.66c9.95-7.58,27-15.16,33.23-9.19,6.05,5.79-.04,22.45-7.07,32.53-13.46,19.3-41.1,29.82-48.08,22.63-6.8-7,4.24-32.5,21.92-45.96Z"/>
  <path class="cls-1" d="m127.15,193.25c-1.68,12.39-8.38,29.81-17,30-8.37.19-15.84-15.9-18-28-4.13-23.16,7.97-50.15,18-50,9.75.14,19.98,25.98,17,48Z"/>
  <path class="cls-1" d="m91.67,30.5c1.68-12.39,8.38-29.81,17-30,8.37-.19,15.84,15.9,18,28,4.13,23.16-7.97,50.15-18,50-9.75-.14-19.98-25.98-17-48Z"/>
  <path class="cls-1" d="m167.5,130.9c-12.39-1.68-29.81-8.38-30-17-.19-8.37,15.9-15.84,28-18,23.16-4.13,50.15,7.97,50,18-.14,9.75-25.98,19.98-48,17Z"/>
  <path class="cls-1" d="m48.5,91.6c12.39,1.68,29.81,8.38,30,17,.19,8.37-15.9,15.84-28,18C27.34,130.73.35,118.63.5,108.6c.14-9.75,25.98-19.98,48-17Z"/>
  <path class="cls-1" d="m34.64,62.63c-7.58-9.95-15.16-27-9.19-33.23,5.79-6.05,22.45.04,32.53,7.07,19.3,13.46,29.82,41.1,22.63,48.08-7,6.8-32.5-4.24-45.96-21.92Z"/>
  <path class="cls-1" d="m61.19,186.43c-9.95,7.58-27,15.16-33.23,9.19-6.05-5.79.04-22.45,7.07-32.53,13.46-19.3,41.1-29.82,48.08-22.63,6.8,7-4.24,32.5-21.92,45.96Z"/>
  <path class="cls-1" d="m185.35,164.13c7.58,9.95,15.16,27,9.19,33.23-5.79,6.05-22.45-.04-32.53-7.07-19.3-13.46-29.82-41.1-22.63-48.08,7-6.8,32.5,4.24,45.96,21.92Z"/>
</svg>